<mxfile host="app.diagrams.net" modified="2024-03-04T11:38:13.959Z" agent="Mozilla/5.0 (Windows NT 10.0; Win64; x64) AppleWebKit/537.36 (KHTML, like Gecko) Chrome/120.0.0.0 YaBrowser/24.1.0.0 Safari/537.36" etag="sRXpNsCbwiuTpCi1NMQE" version="24.0.0" type="google">
  <diagram id="C5RBs43oDa-KdzZeNtuy" name="Page-1">
    <mxGraphModel grid="1" page="1" gridSize="10" guides="1" tooltips="1" connect="1" arrows="1" fold="1" pageScale="1" pageWidth="827" pageHeight="1169" math="0" shadow="0">
      <root>
        <mxCell id="WIyWlLk6GJQsqaUBKTNV-0" />
        <mxCell id="WIyWlLk6GJQsqaUBKTNV-1" parent="WIyWlLk6GJQsqaUBKTNV-0" />
        <mxCell id="zkfFHV4jXpPFQw0GAbJ--0" value="BaseUser" style="swimlane;fontStyle=0;align=center;verticalAlign=top;childLayout=stackLayout;horizontal=1;startSize=26;horizontalStack=0;resizeParent=1;resizeLast=0;collapsible=1;marginBottom=0;rounded=0;shadow=0;strokeWidth=1;" vertex="1" parent="WIyWlLk6GJQsqaUBKTNV-1">
          <mxGeometry x="70" y="140" width="240" height="210" as="geometry">
            <mxRectangle x="230" y="140" width="160" height="26" as="alternateBounds" />
          </mxGeometry>
        </mxCell>
        <mxCell id="yGF6t645OCMySrIcv2uI-0" value="&lt;div&gt;&amp;nbsp;- id: int&lt;span style=&quot;background-color: initial;&quot;&gt;&amp;nbsp;&lt;/span&gt;&lt;/div&gt;" style="text;html=1;align=left;verticalAlign=middle;resizable=0;points=[];autosize=1;strokeColor=none;fillColor=none;" vertex="1" parent="zkfFHV4jXpPFQw0GAbJ--0">
          <mxGeometry y="26" width="240" height="30" as="geometry" />
        </mxCell>
        <mxCell id="yGF6t645OCMySrIcv2uI-2" value="&lt;div style=&quot;color: rgb(0, 0, 0); font-family: Helvetica; font-size: 12px; font-style: normal; font-variant-ligatures: normal; font-variant-caps: normal; font-weight: 400; letter-spacing: normal; orphans: 2; text-indent: 0px; text-transform: none; widows: 2; word-spacing: 0px; -webkit-text-stroke-width: 0px; white-space: nowrap; background-color: rgb(251, 251, 251); text-decoration-thickness: initial; text-decoration-style: initial; text-decoration-color: initial;&quot;&gt;- username: string&lt;/div&gt;" style="text;html=1;align=left;verticalAlign=middle;resizable=0;points=[];autosize=1;strokeColor=none;fillColor=none;" vertex="1" parent="zkfFHV4jXpPFQw0GAbJ--0">
          <mxGeometry y="56" width="240" height="30" as="geometry" />
        </mxCell>
        <mxCell id="yGF6t645OCMySrIcv2uI-6" value="&lt;div style=&quot;&quot;&gt;- email: string&lt;/div&gt;" style="text;html=1;align=left;verticalAlign=middle;resizable=0;points=[];autosize=1;strokeColor=none;fillColor=none;" vertex="1" parent="zkfFHV4jXpPFQw0GAbJ--0">
          <mxGeometry y="86" width="240" height="30" as="geometry" />
        </mxCell>
        <mxCell id="yGF6t645OCMySrIcv2uI-7" value="&lt;div&gt;- password: string&lt;/div&gt;" style="text;html=1;align=left;verticalAlign=middle;resizable=0;points=[];autosize=1;strokeColor=none;fillColor=none;" vertex="1" parent="zkfFHV4jXpPFQw0GAbJ--0">
          <mxGeometry y="116" width="240" height="30" as="geometry" />
        </mxCell>
        <mxCell id="yGF6t645OCMySrIcv2uI-9" value="&lt;div&gt;&amp;nbsp;- registrationDate: Date&lt;span style=&quot;background-color: initial;&quot;&gt;&amp;nbsp;&amp;nbsp;&lt;/span&gt;&lt;/div&gt;" style="text;html=1;align=left;verticalAlign=middle;resizable=0;points=[];autosize=1;strokeColor=none;fillColor=none;" vertex="1" parent="zkfFHV4jXpPFQw0GAbJ--0">
          <mxGeometry y="146" width="240" height="30" as="geometry" />
        </mxCell>
        <mxCell id="yGF6t645OCMySrIcv2uI-10" value="- lastLoginDate: Date" style="text;html=1;align=left;verticalAlign=middle;resizable=0;points=[];autosize=1;strokeColor=none;fillColor=none;" vertex="1" parent="zkfFHV4jXpPFQw0GAbJ--0">
          <mxGeometry y="176" width="240" height="30" as="geometry" />
        </mxCell>
        <mxCell id="yGF6t645OCMySrIcv2uI-12" value="User" style="swimlane;whiteSpace=wrap;html=1;" vertex="1" parent="WIyWlLk6GJQsqaUBKTNV-1">
          <mxGeometry x="80" y="420" width="240" height="150" as="geometry" />
        </mxCell>
        <mxCell id="yGF6t645OCMySrIcv2uI-14" value="&lt;div&gt;- phoneNumber:&lt;span style=&quot;background-color: initial;&quot;&gt;&amp;nbsp; string&lt;/span&gt;&lt;/div&gt;" style="text;html=1;align=center;verticalAlign=middle;resizable=0;points=[];autosize=1;strokeColor=none;fillColor=none;" vertex="1" parent="yGF6t645OCMySrIcv2uI-12">
          <mxGeometry x="-10" y="20" width="150" height="30" as="geometry" />
        </mxCell>
        <mxCell id="yGF6t645OCMySrIcv2uI-15" value="&lt;div&gt;&lt;span style=&quot;background-color: initial;&quot;&gt;- address: string&lt;/span&gt;&lt;br&gt;&lt;/div&gt;" style="text;html=1;align=center;verticalAlign=middle;resizable=0;points=[];autosize=1;strokeColor=none;fillColor=none;" vertex="1" parent="yGF6t645OCMySrIcv2uI-12">
          <mxGeometry x="-10" y="50" width="110" height="30" as="geometry" />
        </mxCell>
        <mxCell id="yGF6t645OCMySrIcv2uI-17" value="&lt;div&gt;- dateOfBirth: Date&amp;nbsp;&lt;/div&gt;" style="text;html=1;align=center;verticalAlign=middle;resizable=0;points=[];autosize=1;strokeColor=none;fillColor=none;" vertex="1" parent="yGF6t645OCMySrIcv2uI-12">
          <mxGeometry x="-10" y="80" width="130" height="30" as="geometry" />
        </mxCell>
        <mxCell id="yGF6t645OCMySrIcv2uI-18" value="&lt;div&gt;&lt;span style=&quot;background-color: initial;&quot;&gt;- isActive: bool&lt;/span&gt;&lt;/div&gt;" style="text;html=1;align=center;verticalAlign=middle;resizable=0;points=[];autosize=1;strokeColor=none;fillColor=none;" vertex="1" parent="yGF6t645OCMySrIcv2uI-12">
          <mxGeometry x="-5" y="110" width="100" height="30" as="geometry" />
        </mxCell>
        <mxCell id="yGF6t645OCMySrIcv2uI-13" value="" style="endArrow=classic;html=1;rounded=0;entryX=0.5;entryY=1;entryDx=0;entryDy=0;exitX=0.526;exitY=0;exitDx=0;exitDy=0;exitPerimeter=0;" edge="1" parent="WIyWlLk6GJQsqaUBKTNV-1" source="yGF6t645OCMySrIcv2uI-12" target="zkfFHV4jXpPFQw0GAbJ--0">
          <mxGeometry width="50" height="50" relative="1" as="geometry">
            <mxPoint x="500" y="380" as="sourcePoint" />
            <mxPoint x="550" y="330" as="targetPoint" />
            <Array as="points">
              <mxPoint x="190" y="370" />
            </Array>
          </mxGeometry>
        </mxCell>
        <mxCell id="yGF6t645OCMySrIcv2uI-19" value="inherits" style="edgeLabel;html=1;align=center;verticalAlign=middle;resizable=0;points=[];" connectable="0" vertex="1" parent="yGF6t645OCMySrIcv2uI-13">
          <mxGeometry x="-0.2013" y="-1" relative="1" as="geometry">
            <mxPoint as="offset" />
          </mxGeometry>
        </mxCell>
        <mxCell id="yGF6t645OCMySrIcv2uI-22" style="edgeStyle=orthogonalEdgeStyle;rounded=0;orthogonalLoop=1;jettySize=auto;html=1;" edge="1" parent="WIyWlLk6GJQsqaUBKTNV-1" source="yGF6t645OCMySrIcv2uI-20">
          <mxGeometry relative="1" as="geometry">
            <mxPoint x="180" y="570" as="targetPoint" />
          </mxGeometry>
        </mxCell>
        <mxCell id="yGF6t645OCMySrIcv2uI-30" value="inherits" style="edgeLabel;html=1;align=center;verticalAlign=middle;resizable=0;points=[];" connectable="0" vertex="1" parent="yGF6t645OCMySrIcv2uI-22">
          <mxGeometry x="-0.2799" y="-1" relative="1" as="geometry">
            <mxPoint as="offset" />
          </mxGeometry>
        </mxCell>
        <mxCell id="yGF6t645OCMySrIcv2uI-20" value="Client" style="swimlane;whiteSpace=wrap;html=1;" vertex="1" parent="WIyWlLk6GJQsqaUBKTNV-1">
          <mxGeometry x="30" y="660" width="250" height="110" as="geometry" />
        </mxCell>
        <mxCell id="yGF6t645OCMySrIcv2uI-24" value="- NumberOfBookings: int" style="text;html=1;align=center;verticalAlign=middle;resizable=0;points=[];autosize=1;strokeColor=none;fillColor=none;" vertex="1" parent="yGF6t645OCMySrIcv2uI-20">
          <mxGeometry y="30" width="150" height="30" as="geometry" />
        </mxCell>
        <mxCell id="yGF6t645OCMySrIcv2uI-25" value="- PaymentInformation: PaymentInformation" style="text;html=1;align=center;verticalAlign=middle;resizable=0;points=[];autosize=1;strokeColor=none;fillColor=none;" vertex="1" parent="yGF6t645OCMySrIcv2uI-20">
          <mxGeometry y="60" width="250" height="30" as="geometry" />
        </mxCell>
        <mxCell id="yGF6t645OCMySrIcv2uI-23" style="edgeStyle=orthogonalEdgeStyle;rounded=0;orthogonalLoop=1;jettySize=auto;html=1;exitX=0.5;exitY=0;exitDx=0;exitDy=0;" edge="1" parent="WIyWlLk6GJQsqaUBKTNV-1" source="yGF6t645OCMySrIcv2uI-21">
          <mxGeometry relative="1" as="geometry">
            <mxPoint x="240" y="570" as="targetPoint" />
          </mxGeometry>
        </mxCell>
        <mxCell id="yGF6t645OCMySrIcv2uI-29" value="inherits" style="edgeLabel;html=1;align=center;verticalAlign=middle;resizable=0;points=[];" connectable="0" vertex="1" parent="yGF6t645OCMySrIcv2uI-23">
          <mxGeometry x="-0.3573" y="1" relative="1" as="geometry">
            <mxPoint as="offset" />
          </mxGeometry>
        </mxCell>
        <mxCell id="yGF6t645OCMySrIcv2uI-21" value="Sta&lt;span style=&quot;background-color: initial;&quot;&gt;ff&lt;/span&gt;" style="swimlane;whiteSpace=wrap;html=1;" vertex="1" parent="WIyWlLk6GJQsqaUBKTNV-1">
          <mxGeometry x="310" y="660" width="200" height="110" as="geometry" />
        </mxCell>
        <mxCell id="yGF6t645OCMySrIcv2uI-27" value="- Position: string" style="text;html=1;align=center;verticalAlign=middle;resizable=0;points=[];autosize=1;strokeColor=none;fillColor=none;" vertex="1" parent="yGF6t645OCMySrIcv2uI-21">
          <mxGeometry y="28" width="110" height="30" as="geometry" />
        </mxCell>
        <mxCell id="yGF6t645OCMySrIcv2uI-28" value="- NumberOfAds : int" style="text;html=1;align=center;verticalAlign=middle;resizable=0;points=[];autosize=1;strokeColor=none;fillColor=none;" vertex="1" parent="yGF6t645OCMySrIcv2uI-21">
          <mxGeometry y="50" width="130" height="30" as="geometry" />
        </mxCell>
        <mxCell id="yGF6t645OCMySrIcv2uI-31" value="UserManager" style="swimlane;whiteSpace=wrap;html=1;" vertex="1" parent="WIyWlLk6GJQsqaUBKTNV-1">
          <mxGeometry x="380" y="370" width="330" height="160" as="geometry" />
        </mxCell>
        <mxCell id="yGF6t645OCMySrIcv2uI-38" value="- users: List&amp;lt;User&amp;gt;" style="text;html=1;align=center;verticalAlign=middle;resizable=0;points=[];autosize=1;strokeColor=none;fillColor=none;" vertex="1" parent="yGF6t645OCMySrIcv2uI-31">
          <mxGeometry y="30" width="120" height="30" as="geometry" />
        </mxCell>
        <mxCell id="yGF6t645OCMySrIcv2uI-39" value="&lt;div&gt;+ add_user(user: User): void&lt;/div&gt;&lt;div&gt;+ remove_user(user: User): void&lt;/div&gt;&lt;div&gt;+ find_user_by_email(email: string): User&lt;/div&gt;&lt;div&gt;+ check_password(user: User, password: string): bool&lt;/div&gt;" style="whiteSpace=wrap;html=1;align=left;" vertex="1" parent="yGF6t645OCMySrIcv2uI-31">
          <mxGeometry y="70" width="330" height="90" as="geometry" />
        </mxCell>
        <mxCell id="yGF6t645OCMySrIcv2uI-36" value="" style="endArrow=classic;startArrow=classic;html=1;rounded=0;entryX=0;entryY=0;entryDx=0;entryDy=0;" edge="1" parent="WIyWlLk6GJQsqaUBKTNV-1" target="yGF6t645OCMySrIcv2uI-39">
          <mxGeometry width="50" height="50" relative="1" as="geometry">
            <mxPoint x="320" y="480" as="sourcePoint" />
            <mxPoint x="370" y="370" as="targetPoint" />
            <Array as="points" />
          </mxGeometry>
        </mxCell>
        <object label="AuthService" users="Map&lt;string, string&gt;" id="yGF6t645OCMySrIcv2uI-45">
          <mxCell style="swimlane;whiteSpace=wrap;html=1;startSize=23;" vertex="1" parent="WIyWlLk6GJQsqaUBKTNV-1">
            <mxGeometry x="770" y="240" width="290" height="160" as="geometry">
              <mxRectangle x="627" y="330" width="140" height="30" as="alternateBounds" />
            </mxGeometry>
          </mxCell>
        </object>
        <mxCell id="yGF6t645OCMySrIcv2uI-46" value="- users: Map&amp;lt;string, string&amp;gt;" style="text;html=1;align=center;verticalAlign=middle;resizable=0;points=[];autosize=1;strokeColor=none;fillColor=none;" vertex="1" parent="yGF6t645OCMySrIcv2uI-45">
          <mxGeometry x="-5" y="28" width="170" height="30" as="geometry" />
        </mxCell>
        <mxCell id="yGF6t645OCMySrIcv2uI-47" value="- tokens: Map&amp;lt;string, string&amp;gt;" style="text;html=1;align=center;verticalAlign=middle;resizable=0;points=[];autosize=1;strokeColor=none;fillColor=none;" vertex="1" parent="yGF6t645OCMySrIcv2uI-45">
          <mxGeometry x="-5" y="50" width="180" height="30" as="geometry" />
        </mxCell>
        <mxCell id="yGF6t645OCMySrIcv2uI-48" value="&lt;div&gt;+ authenticate(email: string, password: string): string&lt;/div&gt;&lt;div&gt;+ authorize(token: string, resource: string): bool&lt;/div&gt;&lt;div&gt;+&amp;nbsp;&lt;span style=&quot;background-color: initial;&quot;&gt;getUserByEmail(email: string): User&lt;/span&gt;&lt;/div&gt;&lt;div&gt;&lt;span style=&quot;background-color: initial;&quot;&gt;+ getUserByToken(token: string): User&lt;br&gt;&lt;/span&gt;&lt;/div&gt;&lt;div&gt;&lt;span style=&quot;background-color: initial;&quot;&gt;+ generateToken(user: User): string&lt;br&gt;&lt;/span&gt;&lt;/div&gt;" style="whiteSpace=wrap;html=1;align=left;" vertex="1" parent="yGF6t645OCMySrIcv2uI-45">
          <mxGeometry y="80" width="290" height="80" as="geometry" />
        </mxCell>
        <mxCell id="yGF6t645OCMySrIcv2uI-50" value="use" style="html=1;verticalAlign=bottom;labelBackgroundColor=none;endArrow=open;endFill=0;dashed=1;rounded=0;exitX=0;exitY=0;exitDx=0;exitDy=0;entryX=1;entryY=0;entryDx=0;entryDy=0;" edge="1" parent="WIyWlLk6GJQsqaUBKTNV-1" source="yGF6t645OCMySrIcv2uI-48" target="yGF6t645OCMySrIcv2uI-39">
          <mxGeometry width="160" relative="1" as="geometry">
            <mxPoint x="810" y="318" as="sourcePoint" />
            <mxPoint x="700" y="308" as="targetPoint" />
          </mxGeometry>
        </mxCell>
        <mxCell id="yGF6t645OCMySrIcv2uI-51" value="&quot;interface&quot;&lt;div&gt;IBaseAuthService&lt;/div&gt;" style="rounded=0;whiteSpace=wrap;html=1;" vertex="1" parent="WIyWlLk6GJQsqaUBKTNV-1">
          <mxGeometry x="805" y="140" width="220" height="60" as="geometry" />
        </mxCell>
        <mxCell id="oP3yjI9n-bNLV6D8Z_aS-0" value="" style="endArrow=block;dashed=1;endFill=0;endSize=12;html=1;rounded=0;exitX=0.5;exitY=1;exitDx=0;exitDy=0;entryX=0.5;entryY=0;entryDx=0;entryDy=0;" edge="1" parent="WIyWlLk6GJQsqaUBKTNV-1" source="yGF6t645OCMySrIcv2uI-51" target="yGF6t645OCMySrIcv2uI-45">
          <mxGeometry width="160" relative="1" as="geometry">
            <mxPoint x="620" y="190" as="sourcePoint" />
            <mxPoint x="780" y="190" as="targetPoint" />
          </mxGeometry>
        </mxCell>
        <mxCell id="oP3yjI9n-bNLV6D8Z_aS-1" value="AccountController" style="swimlane;whiteSpace=wrap;html=1;" vertex="1" parent="WIyWlLk6GJQsqaUBKTNV-1">
          <mxGeometry x="785" y="440" width="260" height="110" as="geometry" />
        </mxCell>
        <mxCell id="oP3yjI9n-bNLV6D8Z_aS-2" value="&lt;div&gt;- authService: AuthService&lt;/div&gt;&lt;div&gt;&amp;nbsp; &amp;nbsp; &amp;nbsp; &amp;nbsp;&lt;br&gt;&lt;/div&gt;" style="text;html=1;align=left;verticalAlign=middle;resizable=0;points=[];autosize=1;strokeColor=none;fillColor=none;" vertex="1" parent="oP3yjI9n-bNLV6D8Z_aS-1">
          <mxGeometry y="30" width="160" height="40" as="geometry" />
        </mxCell>
        <mxCell id="oP3yjI9n-bNLV6D8Z_aS-5" value="&lt;div&gt;+ register(email: string, password: string): void&lt;/div&gt;&lt;div&gt;+ login(email: string, password: string): string&lt;/div&gt;&lt;div&gt;+ logout(token: string): void&lt;/div&gt;" style="whiteSpace=wrap;html=1;align=left;" vertex="1" parent="oP3yjI9n-bNLV6D8Z_aS-1">
          <mxGeometry y="60" width="260" height="50" as="geometry" />
        </mxCell>
        <mxCell id="oP3yjI9n-bNLV6D8Z_aS-4" value="use" style="html=1;verticalAlign=bottom;labelBackgroundColor=none;endArrow=open;endFill=0;dashed=1;rounded=0;exitX=0.5;exitY=0;exitDx=0;exitDy=0;entryX=0.5;entryY=1;entryDx=0;entryDy=0;" edge="1" parent="WIyWlLk6GJQsqaUBKTNV-1" source="oP3yjI9n-bNLV6D8Z_aS-1" target="yGF6t645OCMySrIcv2uI-48">
          <mxGeometry width="160" relative="1" as="geometry">
            <mxPoint x="970" y="450" as="sourcePoint" />
            <mxPoint x="890" y="440" as="targetPoint" />
          </mxGeometry>
        </mxCell>
        <mxCell id="oP3yjI9n-bNLV6D8Z_aS-6" value="&quot;interface&quot;&lt;div&gt;IBaseRepository&lt;/div&gt;" style="rounded=0;whiteSpace=wrap;html=1;" vertex="1" parent="WIyWlLk6GJQsqaUBKTNV-1">
          <mxGeometry x="110" y="870" width="220" height="60" as="geometry" />
        </mxCell>
        <mxCell id="oP3yjI9n-bNLV6D8Z_aS-7" value="BookingRepository" style="swimlane;whiteSpace=wrap;html=1;" vertex="1" parent="WIyWlLk6GJQsqaUBKTNV-1">
          <mxGeometry x="194" y="1000" width="220" height="150" as="geometry" />
        </mxCell>
        <mxCell id="oP3yjI9n-bNLV6D8Z_aS-8" value="- bookings: List&amp;lt;Booking&amp;gt;" style="text;html=1;align=center;verticalAlign=middle;resizable=0;points=[];autosize=1;strokeColor=none;fillColor=none;" vertex="1" parent="oP3yjI9n-bNLV6D8Z_aS-7">
          <mxGeometry y="20" width="160" height="30" as="geometry" />
        </mxCell>
        <mxCell id="oP3yjI9n-bNLV6D8Z_aS-9" value="&lt;div&gt;+ add(&lt;span style=&quot;text-align: center; text-wrap: nowrap;&quot;&gt;booking&lt;/span&gt;:&amp;nbsp;&lt;span style=&quot;text-align: center; text-wrap: nowrap;&quot;&gt;Booking&lt;/span&gt;): void&lt;/div&gt;&lt;div&gt;+ remove(&lt;span style=&quot;text-align: center; text-wrap: nowrap;&quot;&gt;booking&lt;/span&gt;:&amp;nbsp;&lt;span style=&quot;text-align: center; text-wrap: nowrap;&quot;&gt;Booking&lt;/span&gt;): void&lt;/div&gt;&lt;div&gt;+ update(&lt;span style=&quot;text-align: center; text-wrap: nowrap;&quot;&gt;booking&lt;/span&gt;:&amp;nbsp;&lt;span style=&quot;text-align: center; text-wrap: nowrap;&quot;&gt;Booking&lt;/span&gt;): void&lt;/div&gt;&lt;div&gt;+ get(id: string):&amp;nbsp;&lt;span style=&quot;text-align: center; text-wrap: nowrap; background-color: initial;&quot;&gt;Booking&lt;/span&gt;&lt;/div&gt;&lt;div&gt;+ getAll(): List&amp;lt;&lt;span style=&quot;text-align: center; text-wrap: nowrap;&quot;&gt;Booking&lt;/span&gt;&amp;gt;&lt;/div&gt;" style="whiteSpace=wrap;html=1;align=left;" vertex="1" parent="oP3yjI9n-bNLV6D8Z_aS-7">
          <mxGeometry y="58" width="220" height="92" as="geometry" />
        </mxCell>
        <mxCell id="oP3yjI9n-bNLV6D8Z_aS-10" value="" style="endArrow=block;dashed=1;endFill=0;endSize=12;html=1;rounded=0;exitX=0.618;exitY=1.007;exitDx=0;exitDy=0;entryX=0.309;entryY=-0.019;entryDx=0;entryDy=0;entryPerimeter=0;exitPerimeter=0;" edge="1" parent="WIyWlLk6GJQsqaUBKTNV-1" source="oP3yjI9n-bNLV6D8Z_aS-6" target="oP3yjI9n-bNLV6D8Z_aS-7">
          <mxGeometry width="160" relative="1" as="geometry">
            <mxPoint x="810" y="680" as="sourcePoint" />
            <mxPoint x="880" y="700" as="targetPoint" />
            <Array as="points" />
          </mxGeometry>
        </mxCell>
        <mxCell id="oP3yjI9n-bNLV6D8Z_aS-12" value="CarRepository" style="swimlane;whiteSpace=wrap;html=1;" vertex="1" parent="WIyWlLk6GJQsqaUBKTNV-1">
          <mxGeometry x="400" y="815" width="220" height="150" as="geometry" />
        </mxCell>
        <mxCell id="oP3yjI9n-bNLV6D8Z_aS-14" value="&lt;div&gt;+ add(car: Car): void&lt;/div&gt;&lt;div&gt;&lt;span style=&quot;background-color: initial;&quot;&gt;+ remove(car: Car): void&lt;/span&gt;&lt;/div&gt;&lt;div&gt;&lt;span style=&quot;background-color: initial;&quot;&gt;+ update(car: Car): void&lt;/span&gt;&lt;/div&gt;&lt;div&gt;+ get(id: string): Car&lt;/div&gt;&lt;div&gt;&lt;span style=&quot;background-color: initial;&quot;&gt;+ getAll(): List&amp;lt;Car&amp;gt;&lt;/span&gt;&lt;/div&gt;" style="whiteSpace=wrap;html=1;align=left;" vertex="1" parent="oP3yjI9n-bNLV6D8Z_aS-12">
          <mxGeometry y="58" width="220" height="92" as="geometry" />
        </mxCell>
        <mxCell id="oP3yjI9n-bNLV6D8Z_aS-13" value="- cars: List&amp;lt;Car&amp;gt;" style="text;html=1;align=center;verticalAlign=middle;resizable=0;points=[];autosize=1;strokeColor=none;fillColor=none;" vertex="1" parent="oP3yjI9n-bNLV6D8Z_aS-12">
          <mxGeometry y="28" width="110" height="30" as="geometry" />
        </mxCell>
        <mxCell id="oP3yjI9n-bNLV6D8Z_aS-15" value="" style="endArrow=block;dashed=1;endFill=0;endSize=12;html=1;rounded=0;exitX=1;exitY=0.25;exitDx=0;exitDy=0;entryX=-0.006;entryY=0.11;entryDx=0;entryDy=0;entryPerimeter=0;" edge="1" parent="WIyWlLk6GJQsqaUBKTNV-1" source="oP3yjI9n-bNLV6D8Z_aS-6" target="oP3yjI9n-bNLV6D8Z_aS-12">
          <mxGeometry width="160" relative="1" as="geometry">
            <mxPoint x="672" y="713" as="sourcePoint" />
            <mxPoint x="760" y="717" as="targetPoint" />
            <Array as="points" />
          </mxGeometry>
        </mxCell>
        <mxCell id="oP3yjI9n-bNLV6D8Z_aS-16" value="CarRankingService" style="swimlane;whiteSpace=wrap;html=1;" vertex="1" parent="WIyWlLk6GJQsqaUBKTNV-1">
          <mxGeometry x="640" y="670" width="205" height="110" as="geometry" />
        </mxCell>
        <mxCell id="oP3yjI9n-bNLV6D8Z_aS-17" value="+ calculateRanking(car: Car): float" style="text;html=1;align=center;verticalAlign=middle;resizable=0;points=[];autosize=1;strokeColor=none;fillColor=none;" vertex="1" parent="oP3yjI9n-bNLV6D8Z_aS-16">
          <mxGeometry x="-5" y="30" width="210" height="30" as="geometry" />
        </mxCell>
        <mxCell id="oP3yjI9n-bNLV6D8Z_aS-19" value="use" style="html=1;verticalAlign=bottom;labelBackgroundColor=none;endArrow=open;endFill=0;dashed=1;rounded=0;exitX=0.25;exitY=0;exitDx=0;exitDy=0;" edge="1" parent="WIyWlLk6GJQsqaUBKTNV-1" source="oP3yjI9n-bNLV6D8Z_aS-16" target="yGF6t645OCMySrIcv2uI-39">
          <mxGeometry width="160" relative="1" as="geometry">
            <mxPoint x="865" y="780" as="sourcePoint" />
            <mxPoint x="805" y="820" as="targetPoint" />
          </mxGeometry>
        </mxCell>
        <mxCell id="oP3yjI9n-bNLV6D8Z_aS-20" value="use" style="html=1;verticalAlign=bottom;labelBackgroundColor=none;endArrow=open;endFill=0;dashed=1;rounded=0;exitX=0;exitY=0.75;exitDx=0;exitDy=0;entryX=1.014;entryY=0.063;entryDx=0;entryDy=0;entryPerimeter=0;" edge="1" parent="WIyWlLk6GJQsqaUBKTNV-1" source="oP3yjI9n-bNLV6D8Z_aS-16" target="oP3yjI9n-bNLV6D8Z_aS-12">
          <mxGeometry width="160" relative="1" as="geometry">
            <mxPoint x="820" y="880" as="sourcePoint" />
            <mxPoint x="760" y="920" as="targetPoint" />
          </mxGeometry>
        </mxCell>
        <mxCell id="oP3yjI9n-bNLV6D8Z_aS-21" value="Booking&amp;nbsp;" style="swimlane;whiteSpace=wrap;html=1;" vertex="1" parent="WIyWlLk6GJQsqaUBKTNV-1">
          <mxGeometry x="490" y="1040" width="200" height="100" as="geometry" />
        </mxCell>
        <mxCell id="oP3yjI9n-bNLV6D8Z_aS-22" value="&lt;div&gt;- id: string&lt;/div&gt;&lt;div&gt;- startDate: Date&lt;/div&gt;&lt;div&gt;- endDate: Date&lt;/div&gt;&lt;div&gt;- status: string&lt;/div&gt;&lt;div&gt;- car: Car&lt;br&gt;&lt;/div&gt;" style="text;html=1;align=left;verticalAlign=middle;resizable=0;points=[];autosize=1;strokeColor=none;fillColor=none;" vertex="1" parent="oP3yjI9n-bNLV6D8Z_aS-21">
          <mxGeometry y="20" width="110" height="90" as="geometry" />
        </mxCell>
        <mxCell id="oP3yjI9n-bNLV6D8Z_aS-24" value="" style="endArrow=classic;startArrow=classic;html=1;rounded=0;entryX=0.015;entryY=0.153;entryDx=0;entryDy=0;exitX=1;exitY=0;exitDx=0;exitDy=0;entryPerimeter=0;" edge="1" parent="WIyWlLk6GJQsqaUBKTNV-1" source="oP3yjI9n-bNLV6D8Z_aS-9" target="oP3yjI9n-bNLV6D8Z_aS-21">
          <mxGeometry width="50" height="50" relative="1" as="geometry">
            <mxPoint x="410" y="1090" as="sourcePoint" />
            <mxPoint x="470" y="1050" as="targetPoint" />
            <Array as="points" />
          </mxGeometry>
        </mxCell>
        <mxCell id="oP3yjI9n-bNLV6D8Z_aS-25" value="Car" style="swimlane;whiteSpace=wrap;html=1;" vertex="1" parent="WIyWlLk6GJQsqaUBKTNV-1">
          <mxGeometry x="690" y="873" width="200" height="90" as="geometry" />
        </mxCell>
        <mxCell id="oP3yjI9n-bNLV6D8Z_aS-26" value="&lt;div&gt;&amp;nbsp;- id: string&lt;/div&gt;&lt;div&gt;&lt;span style=&quot;background-color: initial;&quot;&gt;- model: string&lt;/span&gt;&lt;/div&gt;&lt;div&gt;&lt;span style=&quot;background-color: initial;&quot;&gt;- year: int&lt;/span&gt;&lt;/div&gt;&lt;div&gt;- status: string&lt;/div&gt;" style="text;html=1;align=left;verticalAlign=middle;resizable=0;points=[];autosize=1;strokeColor=none;fillColor=none;" vertex="1" parent="oP3yjI9n-bNLV6D8Z_aS-25">
          <mxGeometry y="25" width="100" height="70" as="geometry" />
        </mxCell>
        <mxCell id="oP3yjI9n-bNLV6D8Z_aS-27" value="" style="endArrow=classic;startArrow=classic;html=1;rounded=0;entryX=0.006;entryY=0.176;entryDx=0;entryDy=0;exitX=1.005;exitY=0.074;exitDx=0;exitDy=0;entryPerimeter=0;exitPerimeter=0;" edge="1" parent="WIyWlLk6GJQsqaUBKTNV-1" source="oP3yjI9n-bNLV6D8Z_aS-14" target="oP3yjI9n-bNLV6D8Z_aS-25">
          <mxGeometry width="50" height="50" relative="1" as="geometry">
            <mxPoint x="607" y="927.5" as="sourcePoint" />
            <mxPoint x="670" y="922.5" as="targetPoint" />
            <Array as="points" />
          </mxGeometry>
        </mxCell>
        <mxCell id="oP3yjI9n-bNLV6D8Z_aS-28" value="BookingService" style="swimlane;whiteSpace=wrap;html=1;startSize=23;" vertex="1" parent="WIyWlLk6GJQsqaUBKTNV-1">
          <mxGeometry x="-320" y="1000" width="460" height="140" as="geometry" />
        </mxCell>
        <mxCell id="oP3yjI9n-bNLV6D8Z_aS-31" value="- bookingRepository: BookingRepository" style="text;html=1;align=center;verticalAlign=middle;resizable=0;points=[];autosize=1;strokeColor=none;fillColor=none;" vertex="1" parent="oP3yjI9n-bNLV6D8Z_aS-28">
          <mxGeometry y="30" width="240" height="30" as="geometry" />
        </mxCell>
        <mxCell id="oP3yjI9n-bNLV6D8Z_aS-33" value="&lt;div style=&quot;text-align: left; text-wrap: nowrap;&quot;&gt;+ createBooking(clientId: string, carId: string, startDate: Date, endDate: Date): Booking&lt;/div&gt;&lt;div style=&quot;text-align: left; text-wrap: nowrap;&quot;&gt;+ confirmBooking(bookingId: string): void&lt;/div&gt;&lt;div style=&quot;text-align: left; text-wrap: nowrap;&quot;&gt;+ cancelBooking(bookingId: string): void&lt;/div&gt;" style="whiteSpace=wrap;html=1;" vertex="1" parent="oP3yjI9n-bNLV6D8Z_aS-28">
          <mxGeometry y="80" width="460" height="60" as="geometry" />
        </mxCell>
        <mxCell id="oP3yjI9n-bNLV6D8Z_aS-30" value="use" style="html=1;verticalAlign=bottom;labelBackgroundColor=none;endArrow=open;endFill=0;dashed=1;rounded=0;exitX=1;exitY=0.5;exitDx=0;exitDy=0;entryX=0;entryY=0;entryDx=0;entryDy=0;" edge="1" parent="WIyWlLk6GJQsqaUBKTNV-1" source="oP3yjI9n-bNLV6D8Z_aS-28" target="oP3yjI9n-bNLV6D8Z_aS-9">
          <mxGeometry width="160" relative="1" as="geometry">
            <mxPoint x="115.53999999999996" y="1243.7599999999998" as="sourcePoint" />
            <mxPoint x="10" y="1210" as="targetPoint" />
          </mxGeometry>
        </mxCell>
        <mxCell id="oP3yjI9n-bNLV6D8Z_aS-34" value="" style="endArrow=block;dashed=1;endFill=0;endSize=12;html=1;rounded=0;exitX=1;exitY=0.5;exitDx=0;exitDy=0;entryX=0.5;entryY=1;entryDx=0;entryDy=0;" edge="1" parent="WIyWlLk6GJQsqaUBKTNV-1" source="oP3yjI9n-bNLV6D8Z_aS-21" target="oP3yjI9n-bNLV6D8Z_aS-25">
          <mxGeometry width="160" relative="1" as="geometry">
            <mxPoint x="400" y="1259.38" as="sourcePoint" />
            <mxPoint x="560" y="1259.38" as="targetPoint" />
          </mxGeometry>
        </mxCell>
        <mxCell id="oP3yjI9n-bNLV6D8Z_aS-35" value="CarController" style="swimlane;whiteSpace=wrap;html=1;" vertex="1" parent="WIyWlLk6GJQsqaUBKTNV-1">
          <mxGeometry x="900" y="730" width="240" height="70" as="geometry" />
        </mxCell>
        <mxCell id="oP3yjI9n-bNLV6D8Z_aS-36" value="&lt;div&gt;+ getAllCars(): List&amp;lt;Car&amp;gt;&lt;/div&gt;&lt;div&gt;+ getCarById(carId: string): Car&lt;/div&gt;" style="text;html=1;align=left;verticalAlign=middle;resizable=0;points=[];autosize=1;strokeColor=none;fillColor=none;" vertex="1" parent="oP3yjI9n-bNLV6D8Z_aS-35">
          <mxGeometry y="23" width="190" height="40" as="geometry" />
        </mxCell>
        <mxCell id="oP3yjI9n-bNLV6D8Z_aS-37" value="use" style="html=1;verticalAlign=bottom;labelBackgroundColor=none;endArrow=open;endFill=0;dashed=1;rounded=0;exitX=0;exitY=0.25;exitDx=0;exitDy=0;entryX=1;entryY=0.75;entryDx=0;entryDy=0;" edge="1" parent="WIyWlLk6GJQsqaUBKTNV-1" source="oP3yjI9n-bNLV6D8Z_aS-35" target="oP3yjI9n-bNLV6D8Z_aS-16">
          <mxGeometry width="160" relative="1" as="geometry">
            <mxPoint x="1072" y="820" as="sourcePoint" />
            <mxPoint x="915" y="700" as="targetPoint" />
          </mxGeometry>
        </mxCell>
        <mxCell id="oP3yjI9n-bNLV6D8Z_aS-38" value="BookingController" style="swimlane;whiteSpace=wrap;html=1;" vertex="1" parent="WIyWlLk6GJQsqaUBKTNV-1">
          <mxGeometry x="-400" y="800" width="450" height="115" as="geometry" />
        </mxCell>
        <mxCell id="oP3yjI9n-bNLV6D8Z_aS-42" value="+ requestBooking(clientId: string, carId: string, startDate: Date, endDate: Date)&lt;div&gt;+ confirmBooking(clientId: string, bookingId: string): void&lt;br&gt;&lt;/div&gt;" style="whiteSpace=wrap;html=1;align=left;" vertex="1" parent="oP3yjI9n-bNLV6D8Z_aS-38">
          <mxGeometry y="55" width="450" height="60" as="geometry" />
        </mxCell>
        <mxCell id="oP3yjI9n-bNLV6D8Z_aS-43" value="- bookingService: BookingService" style="text;html=1;align=center;verticalAlign=middle;resizable=0;points=[];autosize=1;strokeColor=none;fillColor=none;" vertex="1" parent="oP3yjI9n-bNLV6D8Z_aS-38">
          <mxGeometry x="-10" y="25" width="200" height="30" as="geometry" />
        </mxCell>
        <mxCell id="oP3yjI9n-bNLV6D8Z_aS-41" value="use" style="html=1;verticalAlign=bottom;labelBackgroundColor=none;endArrow=open;endFill=0;dashed=1;rounded=0;exitX=0.732;exitY=1.039;exitDx=0;exitDy=0;exitPerimeter=0;entryX=0.535;entryY=-0.03;entryDx=0;entryDy=0;entryPerimeter=0;" edge="1" parent="WIyWlLk6GJQsqaUBKTNV-1" target="oP3yjI9n-bNLV6D8Z_aS-28">
          <mxGeometry width="160" relative="1" as="geometry">
            <mxPoint x="-70.59999999999991" y="917.3399999999999" as="sourcePoint" />
            <mxPoint x="10" y="965" as="targetPoint" />
          </mxGeometry>
        </mxCell>
      </root>
    </mxGraphModel>
  </diagram>
</mxfile>
